Coordinates
version=1
nRows=9
nColumns=24
inDegrees=yes

Units are S.I. units (second, meters, Newtons, ...)
Angles are in degrees.

endheader
time	pelvis_tilt	pelvis_list	pelvis_rotation	pelvis_tx	pelvis_ty	pelvis_tz	hip_flexion_r	hip_adduction_r	hip_rotation_r	knee_angle_r	ankle_angle_r	subtalar_angle_r	mtp_angle_r	hip_flexion_l	hip_adduction_l	hip_rotation_l	knee_angle_l	ankle_angle_l	subtalar_angle_l	mtp_angle_l	lumbar_extension	lumbar_bending	lumbar_rotation
      1.68000000	     54.40916743	     -3.95138081	    -15.32629813	      0.42889332	      1.03304248	     -0.33857011	     26.03978216	     -3.20765736	     25.06124315	    -36.26458880	      3.47586673	     49.97153668	      0.00000000	      7.70825143	    -19.60511757	    -12.45953127	    -62.80948274	     24.16820184	     26.87818067	      0.00000000	      0.00000000	      0.00000000	      0.00000000
      1.69000000	     54.40672094	     -4.00846111	    -15.36184164	      0.42874689	      1.03299541	     -0.33852226	     26.04757980	     -3.27999142	     25.13315583	    -36.59036371	      3.58407924	     49.95878269	      0.00000000	      7.71048034	    -19.63574357	    -12.43904568	    -62.81423476	     24.16100071	     26.90817441	      0.00000000	      0.00000000	      0.00000000	      0.00000000
      1.70000000	     54.36175166	     -4.07249941	    -15.41866731	      0.42875300	      1.03289516	     -0.33843876	     26.10509577	     -3.34022567	     25.16562611	    -36.84511021	      3.70136734	     49.88792296	      0.00000000	      7.74526792	    -19.69177794	    -12.43398104	    -62.83216866	     24.15846859	     26.94035533	      0.00000000	      0.00000000	      0.00000000	      0.00000000
      1.71000000	     54.28809984	     -4.13092853	    -15.48510488	      0.42878133	      1.03275193	     -0.33835610	     26.21151628	     -3.39773023	     25.17498612	    -37.05061629	      3.82079431	     49.78939720	      0.00000000	      7.80859697	    -19.75524446	    -12.43989482	    -62.85755457	     24.16032758	     26.97055551	      0.00000000	      0.00000000	      0.00000000	      0.00000000
      1.72000000	     54.20658371	     -4.17329657	    -15.54723411	      0.42875243	      1.03259487	     -0.33829157	     26.35312308	     -3.46214123	     25.18076939	    -37.22132122	      3.93285555	     49.68903744	      0.00000000	      7.88879147	    -19.80791415	    -12.45051219	    -62.88247829	     24.16554276	     26.99520659	      0.00000000	      0.00000000	      0.00000000	      0.00000000
      1.73000000	     54.13653660	     -4.19434033	    -15.59480061	      0.42868021	      1.03245484	     -0.33823893	     26.50919212	     -3.54016940	     25.19829145	    -37.36585654	      4.02888497	     49.60395477	      0.00000000	      7.96871038	    -19.83729796	    -12.46028986	    -62.90135889	     24.17282001	     27.01170361	      0.00000000	      0.00000000	      0.00000000	      0.00000000
      1.74000000	     54.09117569	     -4.19484877	    -15.62438209	      0.42860968	      1.03235110	     -0.33819333	     26.65954299	     -3.63348690	     25.23365929	    -37.48923238	      4.10362317	     49.54058808	      0.00000000	      8.03085192	    -19.83959741	    -12.46663357	    -62.91326447	     24.18108514	     27.01870700	      0.00000000	      0.00000000	      0.00000000	      0.00000000
      1.75000000	     54.07672906	     -4.18075785	    -15.63888451	      0.42858502	      1.03227958	     -0.33816216	     26.79064249	     -3.73856655	     25.28325543	    -37.59430647	      4.15611525	     49.49540420	      0.00000000	      8.06313459	    -19.81903093	    -12.47083876	    -62.92111577	     24.18974405	     27.01632797	      0.00000000	      0.00000000	      0.00000000	      0.00000000
      1.76000000	     54.09273426	     -4.16012792	    -15.64454146	      0.42863301	      1.03221928	     -0.33815112	     26.89779428	     -3.84802027	     25.33720186	    -37.68221052	      4.18893871	     49.45800027	      0.00000000	      8.06241703	    -19.78492617	    -12.47715073	    -62.92891509	     24.19865899	     27.00608922	      0.00000000	      0.00000000	      0.00000000	      0.00000000
